<?xml version="1.0" standalone="no"?>
<!DOCTYPE svg PUBLIC "-//W3C//DTD SVG 20010904//EN"
 "http://www.w3.org/TR/2001/REC-SVG-20010904/DTD/svg10.dtd">
<svg version="1.0" xmlns="http://www.w3.org/2000/svg"
 width="48.000000pt" height="48.000000pt" viewBox="0 0 48.000000 48.000000"
 preserveAspectRatio="xMidYMid meet">

<g transform="translate(0.000000,48.000000) scale(0.100000,-0.100000)"
fill="#000000" stroke="none">
<path d="M118 393 c-56 -57 -53 -81 14 -150 l50 -51 -33 -31 c-23 -21 -44 -31
-67 -31 -38 0 -82 -38 -82 -70 0 -18 6 -20 48 -18 l47 1 -42 4 -43 4 15 29
c15 29 51 46 77 38 7 -3 41 19 75 49 35 29 68 53 74 53 19 0 53 -22 93 -59 30
-28 37 -31 32 -15 -4 13 0 26 12 37 32 29 20 63 -48 133 -36 35 -69 64 -74 64
-6 0 18 -29 53 -64 69 -70 82 -103 50 -131 -18 -17 -19 -16 -28 7 -5 14 -9 33
-8 44 2 14 -5 19 -23 19 -20 0 -26 6 -28 27 -3 21 -9 27 -30 30 -21 2 -27 8
-27 28 0 18 -5 25 -20 25 -11 1 -25 4 -31 8 -17 10 -33 -15 -31 -48 2 -22 9
-31 27 -35 16 -4 26 -14 28 -28 2 -15 10 -22 25 -22 22 0 21 -1 -3 -20 l-25
-19 -50 50 c-61 59 -64 84 -16 133 38 40 73 46 103 19 10 -9 18 -11 18 -6 0
18 -31 38 -61 39 -20 1 -38 -10 -71 -43z"/>
<path d="M397 109 c6 -6 21 -16 34 -23 12 -6 24 -17 26 -23 4 -10 -39 -13
-179 -16 l-183 -2 193 -3 c155 -2 192 1 192 11 0 15 -20 34 -57 55 -28 15 -41
16 -26 1z"/>
</g>
</svg>
