<svg width="25" height="30" viewBox="0 0 25 30" fill="none" xmlns="http://www.w3.org/2000/svg">
<path d="M12.0017 1.23918C2.39187 -3.18558 -3.19751 9.24111 2.91829 16.5388C6.26263 20.5273 9.44182 29.7695 16.7085 29.0029C28.2537 27.7877 27.1906 8.2253 12.0017 1.23918ZM7.64837 13.2627C7.07848 13.2627 6.52139 13.0586 6.04755 12.6763C5.57371 12.294 5.20439 11.7506 4.9863 11.1148C4.76822 10.479 4.71116 9.77943 4.82234 9.10451C4.93352 8.42958 5.20794 7.80962 5.61091 7.32303C6.01388 6.83643 6.5273 6.50505 7.08624 6.3708C7.64517 6.23655 8.22452 6.30546 8.75103 6.5688C9.27754 6.83215 9.72755 7.2781 10.0442 7.85028C10.3608 8.42246 10.5298 9.09515 10.5298 9.7833C10.5296 10.706 10.226 11.5909 9.68567 12.2434C9.14533 12.8959 8.41252 13.2625 7.64837 13.2627Z" fill="black"/>
</svg>
